<svg width="162" height="66" viewBox="0 0 162 66" fill="none" xmlns="http://www.w3.org/2000/svg">
<g filter="url(#filter0_d_1337_32)">
<path d="M8.8 37.28C8.71467 37.4507 8.672 37.3867 8.672 37.088C8.672 36.9173 8.69333 36.7893 8.736 36.704C9.20533 34.0587 9.73867 31.456 10.336 28.896C10.976 26.336 11.6587 23.7973 12.384 21.28C13.152 18.7627 13.9627 16.224 14.816 13.664C15.6693 11.0613 16.5867 8.39466 17.568 5.664L17.632 5.408L7.264 8.032C6.96533 8.11733 6.64533 8.11733 6.304 8.032C5.96267 7.904 5.664 7.75466 5.408 7.584C5.152 7.41333 4.96 7.22133 4.832 7.008C4.74667 6.79467 4.81067 6.58133 5.024 6.368C5.96267 5.77066 7.2 5.216 8.736 4.704C10.3147 4.14933 12.0427 3.65866 13.92 3.232C15.84 2.76267 17.8027 2.35733 19.808 2.016C21.8133 1.67466 23.712 1.39733 25.504 1.184C27.3387 0.970665 28.9813 0.821332 30.432 0.736C31.8827 0.650665 32.9707 0.650665 33.696 0.736C34.848 0.821332 35.744 1.12 36.384 1.632C37.024 2.10133 37.408 2.67733 37.536 3.36C37.664 4 37.536 4.68266 37.152 5.408C36.768 6.13333 36.128 6.816 35.232 7.456C34.976 7.62667 34.72 7.69066 34.464 7.648C34.2507 7.56267 34.08 7.43467 33.952 7.264C33.8667 7.05066 33.824 6.816 33.824 6.56C33.8667 6.304 33.9947 6.06933 34.208 5.856C34.2933 5.77067 34.4427 5.62133 34.656 5.408C34.912 5.152 35.04 4.66133 35.04 3.936C35.04 3.89333 35.0187 3.85066 34.976 3.808C34.976 3.76533 34.9547 3.72267 34.912 3.68C34.1013 3.63733 33.0987 3.63733 31.904 3.68C30.752 3.72267 29.5573 3.808 28.32 3.936C27.0827 4.064 25.8453 4.21333 24.608 4.384C23.3707 4.55467 22.2827 4.704 21.344 4.832C21.5147 5.17333 21.5787 5.45066 21.536 5.664C21.4933 5.74933 21.4507 5.83466 21.408 5.92C21.3653 5.96267 21.3227 6.02667 21.28 6.112C21.28 6.28267 21.2373 6.41066 21.152 6.496C21.1093 6.70933 21.024 7.02933 20.896 7.456C20.768 7.88267 20.6187 8.26667 20.448 8.608C20.32 8.90666 20.2347 9.12 20.192 9.248C20.1493 9.33333 20.1067 9.41867 20.064 9.504C20.0213 9.54667 19.9573 9.632 19.872 9.76C19.8293 9.888 19.744 10.144 19.616 10.528C18.8907 12.3627 18.1013 14.6027 17.248 17.248C16.4373 19.8933 15.6267 22.5813 14.816 25.312C14.0053 28.0427 13.216 30.6453 12.448 33.12C11.7227 35.5947 11.0827 37.5573 10.528 39.008C10.4 39.264 10.2293 39.3707 10.016 39.328C9.80267 39.2853 9.58933 39.1573 9.376 38.944C9.20533 38.7307 9.03467 38.4533 8.864 38.112C8.736 37.8133 8.71467 37.536 8.8 37.28ZM26.6035 16.672C26.1342 17.6107 25.6008 18.6133 25.0035 19.68C24.4488 20.7467 23.9368 21.8133 23.4675 22.88L23.0835 23.968C23.5955 23.3707 24.1715 22.7733 24.8115 22.176C25.4942 21.5787 26.1768 21.0453 26.8595 20.576C27.5848 20.064 28.3102 19.6587 29.0355 19.36C29.8035 19.0613 30.5288 18.912 31.2115 18.912C31.9795 18.9973 32.4915 19.4027 32.7475 20.128C33.0462 20.8107 33.1742 21.664 33.1315 22.688C33.0888 23.6693 32.9395 24.736 32.6835 25.888C32.4275 27.04 32.1715 28.1493 31.9155 29.216C31.6595 30.24 31.4675 31.1573 31.3395 31.968C31.2115 32.736 31.2328 33.248 31.4035 33.504C32.0435 33.504 32.8115 33.0987 33.7075 32.288C34.6035 31.4773 35.4782 30.5387 36.3315 29.472C37.2275 28.3627 38.0382 27.296 38.7635 26.272C39.4888 25.2053 40.0222 24.416 40.3635 23.904C40.7902 23.6053 41.1742 23.584 41.5155 23.84C41.8995 24.0533 41.9848 24.3947 41.7715 24.864C41.3875 25.632 40.9182 26.4853 40.3635 27.424C39.8515 28.32 39.2755 29.216 38.6355 30.112C37.9955 30.9653 37.3128 31.7973 36.5875 32.608C35.9048 33.4187 35.2222 34.1013 34.5395 34.656C34.0702 35.0827 33.5368 35.424 32.9395 35.68C32.3422 35.8933 31.7448 36 31.1475 36C30.4222 36 29.7608 35.808 29.1635 35.424C28.6088 35.04 28.2248 34.4213 28.0115 33.568C27.8408 32.8427 27.8408 31.968 28.0115 30.944C28.1822 29.8773 28.3955 28.768 28.6515 27.616C28.9502 26.464 29.2275 25.312 29.4835 24.16C29.7822 23.008 29.9315 21.984 29.9315 21.088C29.2488 21.3013 28.5022 21.728 27.6915 22.368C26.8808 22.9653 26.0702 23.6693 25.2595 24.48C24.4915 25.2907 23.7448 26.1227 23.0195 26.976C22.3368 27.8293 21.7822 28.6187 21.3555 29.344C21.0142 30.5813 20.7795 31.8187 20.6515 33.056C20.4808 34.2507 20.5448 35.4453 20.8435 36.64C20.8435 37.152 20.6302 37.4507 20.2035 37.536C19.7342 37.6213 19.3715 37.4293 19.1155 36.96C18.6035 35.552 18.4542 33.9307 18.6675 32.096C18.8808 30.2613 19.2435 28.384 19.7555 26.464C20.2675 24.544 20.8648 22.688 21.5475 20.896C22.2302 19.104 22.8062 17.5467 23.2755 16.224C23.4035 15.9253 23.5955 15.2853 23.8515 14.304C24.1502 13.3227 24.4488 12.2987 24.7475 11.232C25.0888 10.1653 25.4088 9.20533 25.7075 8.352C26.0062 7.456 26.1982 6.944 26.2835 6.816C26.3262 6.51733 26.3688 6.21866 26.4115 5.92C26.4968 5.62133 26.6035 5.344 26.7315 5.088C26.9875 4.66133 27.2862 4.384 27.6275 4.256C28.0115 4.08533 28.3528 4.04267 28.6515 4.128C28.9928 4.21333 29.2702 4.42666 29.4835 4.768C29.7395 5.06666 29.8462 5.45066 29.8035 5.92C29.7182 6.304 29.5902 6.92267 29.4195 7.776C29.2488 8.62933 29.0142 9.58933 28.7155 10.656C28.4595 11.68 28.1395 12.7253 27.7555 13.792C27.4142 14.8587 27.0302 15.8187 26.6035 16.672ZM26.1555 7.584C26.1555 7.66933 26.1555 7.66933 26.1555 7.584C26.1982 7.49867 26.2195 7.41333 26.2195 7.328C26.1768 7.41333 26.1555 7.49867 26.1555 7.584ZM42.9765 30.752C42.6778 30.8373 42.3365 30.944 41.9525 31.072C41.6112 31.1573 41.2698 31.2213 40.9285 31.264C40.8005 31.776 40.8218 32.3307 40.9925 32.928C41.1205 33.4827 41.5045 33.824 42.1445 33.952C43.2112 33.952 44.2778 33.76 45.3445 33.376C46.4538 32.992 47.5205 32.4587 48.5445 31.776C49.5685 31.0933 50.5498 30.304 51.4885 29.408C52.4272 28.512 53.2592 27.552 53.9845 26.528C54.4965 26.1867 54.9232 26.1867 55.2645 26.528C55.6058 26.8267 55.6058 27.232 55.2645 27.744C54.5818 28.6827 53.7285 29.6853 52.7045 30.752C51.6805 31.776 50.5712 32.736 49.3765 33.632C48.1818 34.4853 46.9232 35.1893 45.6005 35.744C44.3205 36.2987 43.0832 36.5333 41.8885 36.448C40.7792 36.448 39.8618 36.0853 39.1365 35.36C38.4112 34.592 38.0272 33.5893 37.9845 32.352C37.9418 31.4133 38.0485 30.3893 38.3045 29.28C38.5605 28.128 38.9445 26.9973 39.4565 25.888C39.9258 24.736 40.4805 23.648 41.1205 22.624C41.7605 21.5573 42.4218 20.64 43.1045 19.872C43.8298 19.0613 44.5552 18.4427 45.2805 18.016C46.0058 17.5467 46.7098 17.3547 47.3925 17.44C48.0325 17.5253 48.5445 17.7387 48.9285 18.08C49.3552 18.3787 49.6752 18.7627 49.8885 19.232C50.1445 19.7013 50.2938 20.2133 50.3365 20.768C50.4218 21.28 50.4432 21.7493 50.4005 22.176C50.0592 24.3093 49.2698 26.144 48.0325 27.68C46.8378 29.216 45.1525 30.24 42.9765 30.752ZM47.7765 21.6C47.7765 21.5147 47.7552 21.28 47.7125 20.896C47.7125 20.4693 47.5845 20.256 47.3285 20.256C47.1152 20.256 46.7738 20.448 46.3045 20.832C45.8778 21.216 45.4085 21.856 44.8965 22.752C44.0858 24.032 43.4032 25.2053 42.8485 26.272C42.3365 27.296 41.9312 28.2347 41.6325 29.088C42.2298 28.96 42.7632 28.7893 43.2325 28.576C43.7018 28.3627 44.2565 28.0213 44.8965 27.552C45.5792 27.0827 46.1552 26.4213 46.6245 25.568C46.9658 24.9707 47.2432 24.3307 47.4565 23.648C47.6698 22.9653 47.7765 22.2827 47.7765 21.6ZM56.146 20.896C56.3167 20.64 56.5727 20.512 56.914 20.512C57.298 20.512 57.6393 20.576 57.938 20.704C58.2793 20.832 58.5353 21.024 58.706 21.28C58.9193 21.4933 58.9407 21.728 58.77 21.984C58.4713 22.24 58.1087 22.8587 57.682 23.84C57.2553 24.8213 56.8287 25.9307 56.402 27.168C55.9753 28.3627 55.5913 29.5573 55.25 30.752C54.9513 31.9467 54.7807 32.864 54.738 33.504C54.6953 33.8453 54.7593 34.0587 54.93 34.144C55.1007 34.1867 55.2713 34.208 55.442 34.208C55.9113 34.208 56.6793 33.8667 57.746 33.184C58.8553 32.5013 59.9433 31.4347 61.01 29.984C61.522 29.5573 62.0127 28.704 62.482 27.424C62.9513 26.144 63.3993 24.8 63.826 23.392C64.2953 21.9413 64.7647 20.5973 65.234 19.36C65.7033 18.08 66.194 17.2053 66.706 16.736C66.962 16.5653 67.2607 16.5227 67.602 16.608C67.986 16.6933 68.3273 16.8427 68.626 17.056C68.9673 17.2693 69.2233 17.5253 69.394 17.824C69.6073 18.1227 69.6287 18.4 69.458 18.656C69.2873 18.8693 69.074 19.232 68.818 19.744C68.6047 20.2133 68.306 20.9387 67.922 21.92C67.5807 22.8587 67.154 24.096 66.642 25.632C66.13 27.168 65.49 29.1093 64.722 31.456C65.9593 30.4747 67.1753 29.5147 68.37 28.576C69.6073 27.5947 70.8873 26.6773 72.21 25.824C72.6367 25.5253 72.978 25.5893 73.234 26.016C73.49 26.4 73.4687 26.784 73.17 27.168C71.5487 28.4907 69.97 29.7707 68.434 31.008C66.898 32.2027 65.362 33.4187 63.826 34.656C63.57 35.424 63.3353 36.1493 63.122 36.832C62.9513 37.5147 62.802 38.0907 62.674 38.56C62.162 40.5653 61.4367 42.656 60.498 44.832C59.5593 47.0507 58.4073 49.0987 57.042 50.976C55.7193 52.896 54.226 54.4747 52.562 55.712C50.8553 56.992 49.0207 57.696 47.058 57.824C46.2473 57.8667 45.4793 57.7173 44.754 57.376C43.986 57.0773 43.346 56.6293 42.834 56.032C42.322 55.4773 42.002 54.7947 41.874 53.984C41.7033 53.1733 41.81 52.2987 42.194 51.36C42.4927 50.6347 42.9833 49.8453 43.666 48.992C44.3487 48.1387 45.138 47.264 46.034 46.368C46.93 45.5147 47.89 44.64 48.914 43.744C49.938 42.8907 50.962 42.0587 51.986 41.248C52.9673 40.48 53.8847 39.776 54.738 39.136C55.5913 38.496 56.3167 37.9627 56.914 37.536L60.434 34.912L60.946 32.864C59.8367 33.8453 58.6633 34.72 57.426 35.488C56.1887 36.2133 55.1433 36.6187 54.29 36.704C53.1807 36.7467 52.434 36.512 52.05 36C51.666 35.5307 51.474 34.9333 51.474 34.208C51.474 33.4827 51.602 32.736 51.858 31.968C52.0713 31.1573 52.2633 30.4747 52.434 29.92C52.6473 29.2373 52.882 28.4693 53.138 27.616C53.394 26.7627 53.6713 25.9307 53.97 25.12C54.2687 24.2667 54.61 23.4773 54.994 22.752C55.3353 21.984 55.7193 21.3653 56.146 20.896ZM56.274 46.624C56.53 46.112 56.786 45.4933 57.042 44.768C57.3407 44.0853 57.618 43.3387 57.874 42.528C58.1727 41.76 58.45 40.9707 58.706 40.16C59.0047 39.3493 59.282 38.624 59.538 37.984C58.002 39.2213 56.466 40.48 54.93 41.76C53.3513 43.04 51.7727 44.384 50.194 45.792C49.3407 46.6027 48.466 47.456 47.57 48.352C46.6313 49.248 45.8207 50.1867 45.138 51.168C45.0953 51.2533 45.01 51.4027 44.882 51.616C44.7113 51.8293 44.562 52.064 44.434 52.32C44.2633 52.576 44.1353 52.832 44.05 53.088C43.9647 53.344 43.9433 53.536 43.986 53.664C44.0713 53.8773 44.3487 54.1333 44.818 54.432C45.2447 54.7733 45.8207 54.944 46.546 54.944C47.442 54.944 48.3593 54.688 49.298 54.176C50.2367 53.664 51.154 53.0027 52.05 52.192C52.946 51.3813 53.7567 50.4853 54.482 49.504C55.2073 48.5227 55.8047 47.5627 56.274 46.624ZM87.82 18.08C88.1613 17.2267 88.4173 16.5227 88.588 15.968C88.8013 15.3707 88.9293 15.0293 88.972 14.944C89.8253 12.512 90.6573 10.5067 91.468 8.928C92.2787 7.34933 93.0467 6.112 93.772 5.216C94.4973 4.27733 95.1587 3.63733 95.756 3.296C96.3533 2.912 96.8653 2.74133 97.292 2.784C98.188 2.784 98.7427 3.104 98.956 3.744C99.1693 4.384 99.1053 5.06667 98.764 5.792L98.572 6.304C98.3587 6.85866 98.0173 7.56266 97.548 8.416C97.0787 9.22666 96.524 10.1227 95.884 11.104C95.244 12.0853 94.54 13.1307 93.772 14.24C93.004 15.3067 92.236 16.3733 91.468 17.44L89.356 24.032C89.1427 24.8 88.908 25.568 88.652 26.336C88.4387 27.0613 88.2893 27.7867 88.204 28.512C88.1613 28.7253 88.0973 29.1733 88.012 29.856C87.9693 30.496 87.948 31.1787 87.948 31.904C87.948 32.5867 88.012 33.2267 88.14 33.824C88.3107 34.3787 88.6093 34.656 89.036 34.656C89.4627 34.656 90.06 34.2293 90.828 33.376C91.6387 32.5227 92.4707 31.52 93.324 30.368C94.1773 29.216 94.9667 28.064 95.692 26.912C96.46 25.76 97.0147 24.8853 97.356 24.288L97.676 23.968C97.7613 23.8827 97.8253 23.84 97.868 23.84C97.9533 23.84 97.996 23.8613 97.996 23.904C97.996 23.9467 98.0387 24.0107 98.124 24.096C98.2947 24.4373 98.3587 24.8 98.316 25.184C98.316 25.5253 98.2733 25.8667 98.188 26.208C98.06 26.5493 97.8893 26.8693 97.676 27.168C97.3773 27.68 96.9933 28.2987 96.524 29.024C96.0547 29.7067 95.5427 30.4107 94.988 31.136C94.476 31.8613 93.9427 32.5653 93.388 33.248C92.876 33.888 92.4067 34.4213 91.98 34.848C91.5107 35.3173 91.02 35.6373 90.508 35.808C90.0387 35.9787 89.5907 36.064 89.164 36.064C88.7373 36.064 88.268 36 87.756 35.872L86.732 35.296C86.4333 35.0827 86.1347 34.8693 85.836 34.656C85.4947 34.4 85.1747 34.0587 84.876 33.632C84.6627 33.3333 84.5347 32.9067 84.492 32.352C84.4067 31.7547 84.364 31.1573 84.364 30.56C84.364 30.3893 84.3853 30.112 84.428 29.728C84.428 29.3013 84.5347 28.64 84.748 27.744C84.9613 26.848 85.3027 25.632 85.772 24.096C86.2413 22.56 86.924 20.5547 87.82 18.08ZM96.588 4.96C96.1613 5.30133 95.628 6.26133 94.988 7.84C94.348 9.41866 93.6653 11.232 92.94 13.28C93.7507 12.128 94.476 11.0613 95.116 10.08C95.756 9.09866 96.268 8.24533 96.652 7.52C97.0787 6.752 97.3347 6.13333 97.42 5.664C97.5053 5.19467 97.3987 4.896 97.1 4.768C96.8867 4.768 96.716 4.832 96.588 4.96ZM101.767 20.256L101.959 20.384C102.044 20.4693 102.066 20.5333 102.023 20.576C101.98 20.576 101.98 20.6187 102.023 20.704C102.023 20.7467 101.98 20.896 101.895 21.152C101.81 21.408 101.724 21.6853 101.639 21.984C101.554 22.24 101.447 22.496 101.319 22.752C101.234 22.9653 101.191 23.072 101.191 23.072C100.935 23.9253 100.594 24.9067 100.167 26.016C99.783 27.0827 99.4203 28.064 99.079 28.96C98.7803 29.728 98.6097 30.3253 98.567 30.752C98.5243 31.1787 98.5243 31.6053 98.567 32.032C98.6097 32.5013 98.759 33.056 99.015 33.696C99.3137 34.336 99.719 34.656 100.231 34.656C100.658 34.6987 101.276 34.3147 102.087 33.504C102.94 32.6507 103.794 31.6693 104.647 30.56C105.5 29.4507 106.29 28.3413 107.015 27.232C107.783 26.08 108.338 25.2267 108.679 24.672L108.743 24.608L108.999 24.288C109.084 24.2027 109.17 24.16 109.255 24.16C109.383 24.16 109.468 24.2453 109.511 24.416C109.596 24.5867 109.639 24.7787 109.639 24.992C109.682 25.2053 109.703 25.4187 109.703 25.632C109.703 25.8027 109.703 25.9093 109.703 25.952C109.703 26.0373 109.682 26.1013 109.639 26.144C109.639 26.144 109.639 26.1653 109.639 26.208C109.511 26.464 109.404 26.6987 109.319 26.912C109.234 27.1253 109.127 27.3387 108.999 27.552C108.7 28.064 108.316 28.64 107.847 29.28C107.42 29.92 106.972 30.56 106.503 31.2C106.034 31.84 105.543 32.48 105.031 33.12C104.562 33.7173 104.114 34.2293 103.687 34.656C103.218 35.1253 102.642 35.488 101.959 35.744C101.319 35.9573 100.786 36.064 100.359 36.064C98.7803 36.064 97.5857 35.5947 96.775 34.656C95.9643 33.6747 95.5163 32.6293 95.431 31.52C95.2177 28.7893 96.1777 25.4187 98.311 21.408C98.311 21.28 98.3963 21.1307 98.567 20.96C98.823 20.6613 99.1217 20.4267 99.463 20.256C99.8043 20.0853 100.146 19.9787 100.487 19.936C100.828 19.8933 101.127 19.9147 101.383 20C101.639 20.0427 101.767 20.128 101.767 20.256ZM102.343 18.144C102.13 18.1867 101.831 18.2293 101.447 18.272C101.063 18.3147 100.764 18.2933 100.551 18.208C100.338 18.08 100.146 17.888 99.975 17.632C99.847 17.376 99.783 17.1627 99.783 16.992C99.783 16.8213 99.8897 16.5227 100.103 16.096C100.316 15.6693 100.487 15.2853 100.615 14.944C100.914 14.304 101.383 13.8987 102.023 13.728C102.663 13.5147 103.303 13.4293 103.943 13.472C104.199 13.5147 104.306 13.5787 104.263 13.664C104.263 13.7493 104.306 13.856 104.391 13.984C104.476 14.0693 104.562 14.176 104.647 14.304C104.775 14.3893 104.818 14.4747 104.775 14.56L104.647 15.008L103.879 16.928C103.751 17.2693 103.495 17.568 103.111 17.824C102.77 18.0373 102.514 18.144 102.343 18.144ZM111.478 16.992C111.691 16.864 111.969 16.864 112.31 16.992C112.651 17.12 112.95 17.312 113.206 17.568C113.505 17.824 113.739 18.1227 113.91 18.464C114.081 18.7627 114.102 19.04 113.974 19.296C112.993 21.0453 112.033 23.0507 111.094 25.312C110.198 27.5733 109.643 30.0907 109.43 32.864C110.411 31.2427 111.457 29.5573 112.566 27.808C113.718 26.016 114.827 24.2453 115.894 22.496C117.003 20.704 118.027 18.976 118.966 17.312C119.905 15.648 120.673 14.1333 121.27 12.768C121.313 12.512 121.334 12.2987 121.334 12.128C121.377 11.9573 121.441 11.7653 121.526 11.552C121.782 11.0827 122.123 10.9333 122.55 11.104C123.019 11.2747 123.211 11.5947 123.126 12.064C123.211 12.2773 123.19 12.5973 123.062 13.024C122.934 13.4507 122.785 13.8987 122.614 14.368C122.443 14.8373 122.251 15.2853 122.038 15.712C121.867 16.096 121.761 16.3307 121.718 16.416C121.462 16.8853 121.057 17.6747 120.502 18.784C119.947 19.8933 119.307 21.152 118.582 22.56C117.857 23.968 117.067 25.44 116.214 26.976C115.403 28.512 114.571 29.92 113.718 31.2C112.907 32.48 112.118 33.5253 111.35 34.336C110.625 35.1467 109.985 35.552 109.43 35.552C108.961 35.5947 108.449 35.424 107.894 35.04C107.339 34.656 106.977 34.08 106.806 33.312C106.849 31.8613 106.977 30.3893 107.19 28.896C107.403 27.4027 107.702 25.9307 108.086 24.48C108.47 23.0293 108.939 21.664 109.494 20.384C110.049 19.104 110.71 17.9733 111.478 16.992ZM124.289 30.752C123.99 30.8373 123.649 30.944 123.265 31.072C122.924 31.1573 122.582 31.2213 122.241 31.264C122.113 31.776 122.134 32.3307 122.305 32.928C122.433 33.4827 122.817 33.824 123.457 33.952C124.524 33.952 125.59 33.76 126.657 33.376C127.766 32.992 128.833 32.4587 129.857 31.776C130.881 31.0933 131.862 30.304 132.801 29.408C133.74 28.512 134.572 27.552 135.297 26.528C135.809 26.1867 136.236 26.1867 136.577 26.528C136.918 26.8267 136.918 27.232 136.577 27.744C135.894 28.6827 135.041 29.6853 134.017 30.752C132.993 31.776 131.884 32.736 130.689 33.632C129.494 34.4853 128.236 35.1893 126.913 35.744C125.633 36.2987 124.396 36.5333 123.201 36.448C122.092 36.448 121.174 36.0853 120.449 35.36C119.724 34.592 119.34 33.5893 119.297 32.352C119.254 31.4133 119.361 30.3893 119.617 29.28C119.873 28.128 120.257 26.9973 120.769 25.888C121.238 24.736 121.793 23.648 122.433 22.624C123.073 21.5573 123.734 20.64 124.417 19.872C125.142 19.0613 125.868 18.4427 126.593 18.016C127.318 17.5467 128.022 17.3547 128.705 17.44C129.345 17.5253 129.857 17.7387 130.241 18.08C130.668 18.3787 130.988 18.7627 131.201 19.232C131.457 19.7013 131.606 20.2133 131.649 20.768C131.734 21.28 131.756 21.7493 131.713 22.176C131.372 24.3093 130.582 26.144 129.345 27.68C128.15 29.216 126.465 30.24 124.289 30.752ZM129.089 21.6C129.089 21.5147 129.068 21.28 129.025 20.896C129.025 20.4693 128.897 20.256 128.641 20.256C128.428 20.256 128.086 20.448 127.617 20.832C127.19 21.216 126.721 21.856 126.209 22.752C125.398 24.032 124.716 25.2053 124.161 26.272C123.649 27.296 123.244 28.2347 122.945 29.088C123.542 28.96 124.076 28.7893 124.545 28.576C125.014 28.3627 125.569 28.0213 126.209 27.552C126.892 27.0827 127.468 26.4213 127.937 25.568C128.278 24.9707 128.556 24.3307 128.769 23.648C128.982 22.9653 129.089 22.2827 129.089 21.6ZM136.114 35.936C135.176 35.424 134.514 34.7627 134.13 33.952C133.746 33.1413 133.533 32.3093 133.49 31.456C133.448 30.56 133.533 29.6853 133.746 28.832C133.96 27.9787 134.194 27.2533 134.451 26.656C134.92 25.504 135.474 24.3947 136.114 23.328C136.755 22.2613 137.48 21.3227 138.291 20.512C139.101 19.6587 139.976 18.976 140.915 18.464C141.896 17.952 142.941 17.6747 144.051 17.632C144.435 17.632 144.797 17.6533 145.139 17.696C145.523 17.7387 145.864 17.8667 146.163 18.08L147.379 14.944C148.232 12.512 149.064 10.5067 149.875 8.928C150.685 7.34933 151.432 6.112 152.115 5.216C152.84 4.27733 153.501 3.63733 154.099 3.296C154.696 2.912 155.229 2.74133 155.699 2.784C156.552 2.784 157.085 3.104 157.299 3.744C157.512 4.384 157.448 5.06667 157.107 5.792L156.915 6.304C156.701 6.85866 156.36 7.56266 155.891 8.416C155.421 9.22666 154.867 10.1227 154.227 11.104C153.587 12.0853 152.883 13.1307 152.115 14.24C151.389 15.3067 150.643 16.3733 149.875 17.44C149.277 19.3173 148.808 20.8107 148.467 21.92C148.125 23.0293 147.848 23.904 147.635 24.544C147.464 25.184 147.336 25.6533 147.251 25.952C147.165 26.208 147.08 26.4213 146.995 26.592C146.696 27.4027 146.547 28.0427 146.547 28.512C146.504 28.7253 146.44 29.1733 146.355 29.856C146.312 30.496 146.291 31.1787 146.291 31.904C146.291 32.5867 146.376 33.2267 146.547 33.824C146.717 34.3787 147.016 34.656 147.443 34.656C147.827 34.656 148.403 34.2293 149.171 33.376C149.981 32.5227 150.813 31.52 151.667 30.368C152.563 29.216 153.373 28.064 154.099 26.912C154.867 25.76 155.421 24.8853 155.763 24.288L156.083 23.968C156.168 23.8827 156.232 23.84 156.275 23.84C156.36 23.84 156.403 23.8613 156.403 23.904C156.403 23.9467 156.445 24.0107 156.531 24.096C156.659 24.4373 156.701 24.8 156.659 25.184C156.659 25.5253 156.616 25.8667 156.531 26.208C156.488 26.5067 156.339 26.8267 156.083 27.168C155.784 27.68 155.4 28.2987 154.931 29.024C154.461 29.7067 153.949 30.4107 153.395 31.136C152.883 31.8613 152.349 32.5653 151.795 33.248C151.283 33.888 150.813 34.4213 150.387 34.848C149.917 35.3173 149.427 35.6373 148.915 35.808C148.445 35.9787 147.997 36.064 147.571 36.064C147.101 36.064 146.611 36 146.099 35.872L145.139 35.296C144.84 35.0827 144.52 34.8693 144.179 34.656C143.837 34.4 143.517 34.0587 143.219 33.632C143.005 33.3333 142.877 32.9067 142.835 32.352C142.792 31.7547 142.771 31.1573 142.771 30.56C142.771 30.2187 142.771 29.8773 142.771 29.536C142.813 29.152 142.856 28.7467 142.899 28.32C142.387 29.3867 141.917 30.304 141.491 31.072C141.064 31.7973 140.573 32.5867 140.019 33.44C139.379 34.4213 138.824 35.104 138.355 35.488C137.885 35.8293 137.48 36.0427 137.139 36.128C136.712 36.1707 136.37 36.1067 136.114 35.936ZM145.523 20C145.096 19.7867 144.605 19.68 144.051 19.68C143.368 19.68 142.728 19.9787 142.131 20.576C141.576 21.1733 141.107 21.6853 140.723 22.112C139.869 23.0933 139.165 24.1173 138.611 25.184C138.056 26.208 137.48 27.5947 136.883 29.344C136.541 30.1973 136.328 30.8587 136.242 31.328C136.157 31.7973 136.136 32.1387 136.178 32.352C136.221 32.608 136.328 32.7573 136.498 32.8C136.797 32.7573 137.16 32.5653 137.587 32.224C138.013 31.8827 138.525 31.3707 139.123 30.688C139.72 29.9627 140.403 29.0453 141.171 27.936C141.981 26.8267 142.92 25.44 143.987 23.776C144.072 23.6907 144.136 23.6053 144.179 23.52C144.221 23.392 144.285 23.2853 144.371 23.2C144.712 22.0907 145.096 21.024 145.523 20ZM154.931 4.96C154.504 5.30133 153.971 6.26133 153.331 7.84C152.691 9.41866 152.008 11.232 151.283 13.28C152.093 12.128 152.819 11.0613 153.458 10.08C154.099 9.09866 154.611 8.24533 154.995 7.52C155.421 6.752 155.677 6.13333 155.763 5.664C155.891 5.19467 155.805 4.896 155.507 4.768C155.251 4.768 155.059 4.832 154.931 4.96Z" fill="white"/>
</g>
<defs>
<filter id="filter0_d_1337_32" x="0.70401" y="0.608002" width="160.914" height="65.28" filterUnits="userSpaceOnUse" color-interpolation-filters="sRGB">
<feFlood flood-opacity="0" result="BackgroundImageFix"/>
<feColorMatrix in="SourceAlpha" type="matrix" values="0 0 0 0 0 0 0 0 0 0 0 0 0 0 0 0 0 0 127 0" result="hardAlpha"/>
<feOffset dy="4"/>
<feGaussianBlur stdDeviation="2"/>
<feComposite in2="hardAlpha" operator="out"/>
<feColorMatrix type="matrix" values="0 0 0 0 0 0 0 0 0 0 0 0 0 0 0 0 0 0 0.25 0"/>
<feBlend mode="normal" in2="BackgroundImageFix" result="effect1_dropShadow_1337_32"/>
<feBlend mode="normal" in="SourceGraphic" in2="effect1_dropShadow_1337_32" result="shape"/>
</filter>
</defs>
</svg>
